# Blender 4.0.0
# www.blender.org
mtllib player.mtl
o 球
v 0.866025 -0.000000 -0.500000
v 0.849385 -0.168953 0.500000
v 0.849385 -0.168953 -0.500000
v 0.800103 -0.331414 0.500000
v 0.800103 -0.331414 -0.500000
v 0.720074 -0.481138 0.500000
v 0.720074 -0.481138 -0.500000
v 0.612372 -0.612372 0.500000
v 0.612372 -0.612372 -0.500000
v 0.481138 -0.720074 0.500000
v 0.481138 -0.720074 -0.500000
v 0.331413 -0.800103 0.500000
v 0.331413 -0.800103 -0.500000
v 0.168953 -0.849385 0.500000
v 0.168953 -0.849385 -0.500000
v -0.000000 -0.866025 0.500000
v -0.000000 -0.866025 -0.500000
v -0.168953 -0.849385 0.500000
v -0.168953 -0.849385 -0.500000
v -0.331414 -0.800103 0.500000
v -0.331414 -0.800103 -0.500000
v -0.481138 -0.720074 0.500000
v -0.481138 -0.720074 -0.500000
v -0.612372 -0.612372 0.500000
v -0.612372 -0.612372 -0.500000
v -0.720074 -0.481138 0.500000
v -0.720074 -0.481138 -0.500000
v -0.800103 -0.331413 0.500000
v -0.800103 -0.331413 -0.500000
v -0.849385 -0.168953 0.500000
v -0.849385 -0.168953 -0.500000
v -0.866025 0.000000 0.500000
v -0.866025 0.000000 -0.500000
v -0.849385 0.168953 0.500000
v -0.849385 0.168953 -0.500000
v 0.000000 -0.000000 1.000000
v -0.800103 0.331414 0.500000
v -0.800103 0.331414 -0.500000
v -0.000000 0.000000 -1.000000
v -0.720073 0.481138 0.500000
v -0.720073 0.481138 -0.500000
v -0.612372 0.612372 0.500000
v -0.612372 0.612372 -0.500000
v -0.481138 0.720074 0.500000
v -0.481138 0.720074 -0.500000
v -0.331413 0.800103 0.500000
v -0.331413 0.800103 -0.500000
v -0.168953 0.849385 0.500000
v -0.168953 0.849385 -0.500000
v 0.000000 0.866025 0.500000
v 0.000000 0.866025 -0.500000
v 0.168953 0.849384 0.500000
v 0.168953 0.849384 -0.500000
v 0.331414 0.800103 0.500000
v 0.331414 0.800103 -0.500000
v 0.481138 0.720073 0.500000
v 0.481138 0.720073 -0.500000
v 0.612372 0.612372 0.500000
v 0.612372 0.612372 -0.500000
v 0.720074 0.481137 0.500000
v 0.720074 0.481137 -0.500000
v 0.800103 0.331413 0.500000
v 0.800103 0.331413 -0.500000
v 0.849384 0.168953 0.500000
v 0.849384 0.168953 -0.500000
v 0.866025 -0.000000 0.500000
vn 0.4994 -0.0492 -0.8650
vn 0.9952 -0.0980 -0.0000
vn 0.4994 -0.0492 0.8650
vn 0.4802 -0.1457 -0.8650
vn 0.9569 -0.2903 -0.0000
vn 0.4802 -0.1457 0.8650
vn 0.4426 -0.2366 -0.8650
vn 0.8819 -0.4714 -0.0000
vn 0.4426 -0.2366 0.8650
vn 0.3879 -0.3183 -0.8650
vn 0.7730 -0.6344 -0.0000
vn 0.3879 -0.3183 0.8650
vn 0.3183 -0.3879 -0.8650
vn 0.6344 -0.7730 -0.0000
vn 0.3183 -0.3879 0.8650
vn 0.2366 -0.4426 -0.8650
vn 0.4714 -0.8819 -0.0000
vn 0.2366 -0.4426 0.8650
vn 0.1457 -0.4802 -0.8650
vn 0.2903 -0.9569 -0.0000
vn 0.1457 -0.4802 0.8650
vn 0.0492 -0.4994 -0.8650
vn 0.0980 -0.9952 -0.0000
vn 0.0492 -0.4994 0.8650
vn -0.0492 -0.4994 -0.8650
vn -0.0980 -0.9952 -0.0000
vn -0.0492 -0.4994 0.8650
vn -0.1457 -0.4802 -0.8650
vn -0.2903 -0.9569 -0.0000
vn -0.1457 -0.4802 0.8650
vn -0.2366 -0.4426 -0.8650
vn -0.4714 -0.8819 -0.0000
vn -0.2366 -0.4426 0.8650
vn -0.3183 -0.3879 -0.8650
vn -0.6344 -0.7730 -0.0000
vn -0.3183 -0.3879 0.8650
vn -0.3879 -0.3183 -0.8650
vn -0.7730 -0.6344 -0.0000
vn -0.3879 -0.3183 0.8650
vn -0.4426 -0.2366 -0.8650
vn -0.8819 -0.4714 -0.0000
vn -0.4426 -0.2366 0.8650
vn -0.4802 -0.1457 -0.8650
vn -0.9569 -0.2903 -0.0000
vn -0.4802 -0.1457 0.8650
vn -0.4994 -0.0492 -0.8650
vn -0.9952 -0.0980 -0.0000
vn -0.4994 -0.0492 0.8650
vn -0.4994 0.0492 -0.8650
vn -0.9952 0.0980 -0.0000
vn -0.4994 0.0492 0.8650
vn -0.4802 0.1457 -0.8650
vn -0.9569 0.2903 -0.0000
vn -0.4802 0.1457 0.8650
vn -0.4426 0.2366 -0.8650
vn -0.8819 0.4714 -0.0000
vn -0.4426 0.2366 0.8650
vn -0.3879 0.3183 -0.8650
vn -0.7730 0.6344 -0.0000
vn -0.3879 0.3183 0.8650
vn -0.3183 0.3879 -0.8650
vn -0.6344 0.7730 -0.0000
vn -0.3183 0.3879 0.8650
vn -0.2366 0.4426 -0.8650
vn -0.4714 0.8819 -0.0000
vn -0.2366 0.4426 0.8650
vn -0.1457 0.4802 -0.8650
vn -0.2903 0.9569 -0.0000
vn -0.1457 0.4802 0.8650
vn -0.0492 0.4994 -0.8650
vn -0.0980 0.9952 -0.0000
vn -0.0492 0.4994 0.8650
vn 0.0492 0.4994 -0.8650
vn 0.0980 0.9952 -0.0000
vn 0.0492 0.4994 0.8650
vn 0.1457 0.4802 -0.8650
vn 0.2903 0.9569 -0.0000
vn 0.1457 0.4802 0.8650
vn 0.2366 0.4426 -0.8650
vn 0.4714 0.8819 -0.0000
vn 0.2366 0.4426 0.8650
vn 0.3183 0.3879 -0.8650
vn 0.6344 0.7730 -0.0000
vn 0.3183 0.3879 0.8650
vn 0.3879 0.3183 -0.8650
vn 0.7730 0.6344 -0.0000
vn 0.3879 0.3183 0.8650
vn 0.4426 0.2366 -0.8650
vn 0.8819 0.4714 -0.0000
vn 0.4426 0.2366 0.8650
vn 0.4802 0.1457 -0.8650
vn 0.9569 0.2903 -0.0000
vn 0.4802 0.1457 0.8650
vn 0.4994 0.0492 -0.8650
vn 0.9952 0.0980 -0.0000
vn 0.4994 0.0492 0.8650
vt 0.734375 0.000000
vt 0.750000 0.333333
vt 0.718750 0.333333
vt 0.750000 0.666667
vt 0.734375 1.000000
vt 0.718750 0.666667
vt 0.703125 0.000000
vt 0.687500 0.333333
vt 0.703125 1.000000
vt 0.687500 0.666667
vt 0.671875 0.000000
vt 0.656250 0.333333
vt 0.671875 1.000000
vt 0.656250 0.666667
vt 0.640625 0.000000
vt 0.625000 0.333333
vt 0.640625 1.000000
vt 0.625000 0.666667
vt 0.609375 0.000000
vt 0.593750 0.333333
vt 0.609375 1.000000
vt 0.593750 0.666667
vt 0.578125 0.000000
vt 0.562500 0.333333
vt 0.578125 1.000000
vt 0.562500 0.666667
vt 0.546875 0.000000
vt 0.531250 0.333333
vt 0.546875 1.000000
vt 0.531250 0.666667
vt 0.515625 0.000000
vt 0.500000 0.333333
vt 0.515625 1.000000
vt 0.500000 0.666667
vt 0.484375 0.000000
vt 0.468750 0.333333
vt 0.484375 1.000000
vt 0.468750 0.666667
vt 0.453125 0.000000
vt 0.437500 0.333333
vt 0.453125 1.000000
vt 0.437500 0.666667
vt 0.421875 0.000000
vt 0.406250 0.333333
vt 0.421875 1.000000
vt 0.406250 0.666667
vt 0.390625 0.000000
vt 0.375000 0.333333
vt 0.390625 1.000000
vt 0.375000 0.666667
vt 0.359375 0.000000
vt 0.343750 0.333333
vt 0.359375 1.000000
vt 0.343750 0.666667
vt 0.328125 0.000000
vt 0.312500 0.333333
vt 0.328125 1.000000
vt 0.312500 0.666667
vt 0.296875 0.000000
vt 0.281250 0.333333
vt 0.296875 1.000000
vt 0.281250 0.666667
vt 0.265625 0.000000
vt 0.250000 0.333333
vt 0.265625 1.000000
vt 0.250000 0.666667
vt 0.234375 0.000000
vt 0.218750 0.333333
vt 0.234375 1.000000
vt 0.218750 0.666667
vt 0.203125 0.000000
vt 0.187500 0.333333
vt 0.203125 1.000000
vt 0.187500 0.666667
vt 0.171875 0.000000
vt 0.156250 0.333333
vt 0.171875 1.000000
vt 0.156250 0.666667
vt 0.140625 0.000000
vt 0.125000 0.333333
vt 0.140625 1.000000
vt 0.125000 0.666667
vt 0.109375 0.000000
vt 0.093750 0.333333
vt 0.109375 1.000000
vt 0.093750 0.666667
vt 0.078125 0.000000
vt 0.062500 0.333333
vt 0.078125 1.000000
vt 0.062500 0.666667
vt 0.046875 0.000000
vt 0.031250 0.333333
vt 0.046875 1.000000
vt 0.031250 0.666667
vt 0.015625 0.000000
vt 0.000000 0.333333
vt 0.015625 1.000000
vt 0.000000 0.666667
vt 0.984375 0.000000
vt 1.000000 0.333333
vt 0.968750 0.333333
vt 1.000000 0.666667
vt 0.984375 1.000000
vt 0.968750 0.666667
vt 0.953125 0.000000
vt 0.937500 0.333333
vt 0.953125 1.000000
vt 0.937500 0.666667
vt 0.921875 0.000000
vt 0.906250 0.333333
vt 0.921875 1.000000
vt 0.906250 0.666667
vt 0.890625 0.000000
vt 0.875000 0.333333
vt 0.890625 1.000000
vt 0.875000 0.666667
vt 0.859375 0.000000
vt 0.843750 0.333333
vt 0.859375 1.000000
vt 0.843750 0.666667
vt 0.828125 0.000000
vt 0.812500 0.333333
vt 0.828125 1.000000
vt 0.812500 0.666667
vt 0.796875 0.000000
vt 0.781250 0.333333
vt 0.796875 1.000000
vt 0.781250 0.666667
vt 0.765625 0.000000
vt 0.765625 1.000000
s 0
usemtl マテリアル
f 39/1/1 1/2/1 3/3/1
f 66/4/2 3/3/2 1/2/2
f 66/4/3 36/5/3 2/6/3
f 39/7/4 3/3/4 5/8/4
f 2/6/5 5/8/5 3/3/5
f 2/6/6 36/9/6 4/10/6
f 39/11/7 5/8/7 7/12/7
f 4/10/8 7/12/8 5/8/8
f 4/10/9 36/13/9 6/14/9
f 39/15/10 7/12/10 9/16/10
f 6/14/11 9/16/11 7/12/11
f 6/14/12 36/17/12 8/18/12
f 39/19/13 9/16/13 11/20/13
f 8/18/14 11/20/14 9/16/14
f 8/18/15 36/21/15 10/22/15
f 39/23/16 11/20/16 13/24/16
f 10/22/17 13/24/17 11/20/17
f 10/22/18 36/25/18 12/26/18
f 39/27/19 13/24/19 15/28/19
f 12/26/20 15/28/20 13/24/20
f 12/26/21 36/29/21 14/30/21
f 39/31/22 15/28/22 17/32/22
f 14/30/23 17/32/23 15/28/23
f 14/30/24 36/33/24 16/34/24
f 39/35/25 17/32/25 19/36/25
f 16/34/26 19/36/26 17/32/26
f 16/34/27 36/37/27 18/38/27
f 39/39/28 19/36/28 21/40/28
f 18/38/29 21/40/29 19/36/29
f 18/38/30 36/41/30 20/42/30
f 39/43/31 21/40/31 23/44/31
f 20/42/32 23/44/32 21/40/32
f 20/42/33 36/45/33 22/46/33
f 39/47/34 23/44/34 25/48/34
f 22/46/35 25/48/35 23/44/35
f 22/46/36 36/49/36 24/50/36
f 39/51/37 25/48/37 27/52/37
f 24/50/38 27/52/38 25/48/38
f 24/50/39 36/53/39 26/54/39
f 39/55/40 27/52/40 29/56/40
f 26/54/41 29/56/41 27/52/41
f 26/54/42 36/57/42 28/58/42
f 39/59/43 29/56/43 31/60/43
f 28/58/44 31/60/44 29/56/44
f 28/58/45 36/61/45 30/62/45
f 39/63/46 31/60/46 33/64/46
f 30/62/47 33/64/47 31/60/47
f 30/62/48 36/65/48 32/66/48
f 39/67/49 33/64/49 35/68/49
f 32/66/50 35/68/50 33/64/50
f 32/66/51 36/69/51 34/70/51
f 39/71/52 35/68/52 38/72/52
f 34/70/53 38/72/53 35/68/53
f 34/70/54 36/73/54 37/74/54
f 39/75/55 38/72/55 41/76/55
f 37/74/56 41/76/56 38/72/56
f 37/74/57 36/77/57 40/78/57
f 39/79/58 41/76/58 43/80/58
f 40/78/59 43/80/59 41/76/59
f 40/78/60 36/81/60 42/82/60
f 39/83/61 43/80/61 45/84/61
f 42/82/62 45/84/62 43/80/62
f 42/82/63 36/85/63 44/86/63
f 39/87/64 45/84/64 47/88/64
f 44/86/65 47/88/65 45/84/65
f 44/86/66 36/89/66 46/90/66
f 39/91/67 47/88/67 49/92/67
f 46/90/68 49/92/68 47/88/68
f 46/90/69 36/93/69 48/94/69
f 39/95/70 49/92/70 51/96/70
f 48/94/71 51/96/71 49/92/71
f 48/94/72 36/97/72 50/98/72
f 39/99/73 51/100/73 53/101/73
f 50/102/74 53/101/74 51/100/74
f 50/102/75 36/103/75 52/104/75
f 39/105/76 53/101/76 55/106/76
f 52/104/77 55/106/77 53/101/77
f 52/104/78 36/107/78 54/108/78
f 39/109/79 55/106/79 57/110/79
f 54/108/80 57/110/80 55/106/80
f 54/108/81 36/111/81 56/112/81
f 39/113/82 57/110/82 59/114/82
f 56/112/83 59/114/83 57/110/83
f 56/112/84 36/115/84 58/116/84
f 39/117/85 59/114/85 61/118/85
f 58/116/86 61/118/86 59/114/86
f 58/116/87 36/119/87 60/120/87
f 39/121/88 61/118/88 63/122/88
f 60/120/89 63/122/89 61/118/89
f 60/120/90 36/123/90 62/124/90
f 39/125/91 63/122/91 65/126/91
f 62/124/92 65/126/92 63/122/92
f 62/124/93 36/127/93 64/128/93
f 39/129/94 65/126/94 1/2/94
f 64/128/95 1/2/95 65/126/95
f 64/128/96 36/130/96 66/4/96
f 66/4/2 2/6/2 3/3/2
f 2/6/5 4/10/5 5/8/5
f 4/10/8 6/14/8 7/12/8
f 6/14/11 8/18/11 9/16/11
f 8/18/14 10/22/14 11/20/14
f 10/22/17 12/26/17 13/24/17
f 12/26/20 14/30/20 15/28/20
f 14/30/23 16/34/23 17/32/23
f 16/34/26 18/38/26 19/36/26
f 18/38/29 20/42/29 21/40/29
f 20/42/32 22/46/32 23/44/32
f 22/46/35 24/50/35 25/48/35
f 24/50/38 26/54/38 27/52/38
f 26/54/41 28/58/41 29/56/41
f 28/58/44 30/62/44 31/60/44
f 30/62/47 32/66/47 33/64/47
f 32/66/50 34/70/50 35/68/50
f 34/70/53 37/74/53 38/72/53
f 37/74/56 40/78/56 41/76/56
f 40/78/59 42/82/59 43/80/59
f 42/82/62 44/86/62 45/84/62
f 44/86/65 46/90/65 47/88/65
f 46/90/68 48/94/68 49/92/68
f 48/94/71 50/98/71 51/96/71
f 50/102/74 52/104/74 53/101/74
f 52/104/77 54/108/77 55/106/77
f 54/108/80 56/112/80 57/110/80
f 56/112/83 58/116/83 59/114/83
f 58/116/86 60/120/86 61/118/86
f 60/120/89 62/124/89 63/122/89
f 62/124/92 64/128/92 65/126/92
f 64/128/95 66/4/95 1/2/95
